<mxfile host="app.diagrams.net" modified="2024-07-02T01:33:44.372Z" agent="Mozilla/5.0 (Windows NT 10.0; Win64; x64) AppleWebKit/537.36 (KHTML, like Gecko) Chrome/126.0.0.0 Safari/537.36 Edg/126.0.0.0" version="23.1.5" etag="aJ_XwlgXWkqcfLJRgEki" type="github">
  <diagram name="第 1 页" id="5NTDKB9gZg8CgnqftlvJ">
    <mxGraphModel>
      <root>
        <mxCell id="0" />
        <mxCell id="1" parent="0" />
      </root>
    </mxGraphModel>
  </diagram>
</mxfile>
